<?xml version="1.0" encoding="UTF-8" standalone="no"?>
<svg stroke="#F59E0B" fill="none" stroke-width="2" viewBox="0 0 24 24" stroke-linecap="round" stroke-linejoin="round" height="200px" width="200px" version="1.1" id="svg1" sodipodi:docname="text.svg" inkscape:version="1.4 (unknown)" xmlns:inkscape="http://www.inkscape.org/namespaces/inkscape" xmlns:sodipodi="http://sodipodi.sourceforge.net/DTD/sodipodi-0.dtd" xmlns="http://www.w3.org/2000/svg" xmlns:svg="http://www.w3.org/2000/svg">
  <defs id="defs1" />
  <sodipodi:namedview id="namedview1" pagecolor="#505050" bordercolor="#eeeeee" borderopacity="1" inkscape:showpageshadow="0" inkscape:pageopacity="0" inkscape:pagecheckerboard="0" inkscape:deskcolor="#d1d1d1" inkscape:zoom="3.71" inkscape:cx="99.865229" inkscape:cy="100" inkscape:window-width="1920" inkscape:window-height="981" inkscape:window-x="0" inkscape:window-y="0" inkscape:window-maximized="1" inkscape:current-layer="svg1" />
  <path d="M14 3v4a1 1 0 0 0 1 1h4" id="path1" />
  <path d="M12 21h-5a2 2 0 0 1 -2 -2v-14a2 2 0 0 1 2 -2h7l5 5v3.5" id="path2" />
  <path d="M9 9h1" id="path3" />
  <path d="M9 13h6" id="path4" />
  <path d="M9 17h3" id="path5" />
  <path d="M19 22.5a4.75 4.75 0 0 1 3.5 -3.5a4.75 4.75 0 0 1 -3.5 -3.5a4.75 4.75 0 0 1 -3.5 3.5a4.75 4.75 0 0 1 3.5 3.5" id="path6" style="fill:#ffec80;fill-opacity:0;stroke:#dde300;stroke-opacity:1" />
</svg>
